<svg xmlns="http://www.w3.org/2000/svg" width="602" height="469"><defs><style>@import url('https://fonts.googleapis.com/css2?family=Roboto+Mono&amp;display=swap')</style><style>text,text&gt;tspan{font-family:'Roboto Mono';font-size:16px} rect{stroke:black} line,path{fill:none;stroke:black}</style><marker id="arrowMarker" orient="auto" refX="4" refY="3" markerHeight="6" markerWidth="3"><path style="fill:black;stroke:black" d="M 0 0 L 3 3 L 0 6 Z"></path></marker><marker id="inheritMarker" orient="auto" refX="10" refY="4.5" markerHeight="9" markerWidth="9"><path style="fill:white;stroke:black" d="M 0 0 L 9 4.5 L 0 9 Z"></path></marker><marker id="aggregationMarker" orient="auto" refX="13" refY="4.5" markerHeight="9" markerWidth="12"><path style="fill:white;stroke:black" d="M 0 4.5 L 6 0 L 12 4.5 L 6 9 Z"></path></marker><marker id="compositionMarker" orient="auto" refX="13" refY="4.5" markerHeight="9" markerWidth="12"><path style="fill:black;stroke:black" d="M 0 4.5 L 6 0 L 12 4.5 L 6 9 Z"></path></marker></defs><g transform="translate(3,19)"><rect height="54" width="148" style="fill:white"></rect><rect height="19" width="148.5" style="fill:white"></rect><text x="41" y="16">POUVOIR</text><text><tspan x="1.5" y="35" style="text-decoration:underline">id_pouvoir</tspan><tspan x="1.5" y="51">libelle_pouvoir</tspan></text></g><g transform="translate(416,3)"><rect height="86" width="101" style="fill:white"></rect><rect height="19" width="101" style="fill:white"></rect><text x="31.5" y="16">CHAT</text><text><tspan x="1.5" y="35" style="text-decoration:underline">id_chat</tspan><tspan x="1.5" y="51">nom_chat</tspan><tspan x="1.5" y="67">pv_max</tspan><tspan x="1.5" y="83">id_pouvoir</tspan></text></g><g transform="translate(12,169)"><rect height="102" width="129" style="fill:white"></rect><rect height="19" width="129.5" style="fill:white"></rect><text x="45.75" y="16">TOUR</text><text><tspan x="1.5" y="35" style="text-decoration:underline">id_tour</tspan><tspan x="1.5" y="51">numero_tour</tspan><tspan x="1.5" y="67">degats_chat_1</tspan><tspan x="1.5" y="83">degats_chat_2</tspan><tspan x="1.5" y="99">id_combat</tspan></text></g><g transform="translate(412,193)"><rect height="54" width="110" style="fill:white"></rect><rect height="19" width="110.5" style="fill:white"></rect><text x="26.75" y="16">COMBAT</text><text><tspan x="1.5" y="35" style="text-decoration:underline">id_combat</tspan><tspan x="1.5" y="51">date_combat</tspan></text></g><g transform="translate(231,351)"><rect height="38" width="101" style="fill:white"></rect><rect height="19" width="101" style="fill:white"></rect><text x="3" y="16">PARTICIPER</text><text><tspan x="1.5" y="35" style="text-decoration:underline">id_chat</tspan></text></g><g><path d="M 416 83 L 410 83 L 157 51 L 151 51" marker-end="url(#arrowMarker)"></path></g><g><path d="M 141 265 L 147 265 L 406 225 L 412 225" marker-end="url(#arrowMarker)"></path></g><g><path d="M 332 383 L 338 383 L 410 35 L 416 35" marker-end="url(#arrowMarker)"></path></g></svg>